HIERARCHY
ROOT Hips
{
     OFFSET 1.88212 96.90440 -13.34250
     CHANNELS 6 Xposition Yposition Zposition Zrotation Xrotation Yrotation
     JOINT Spine
     {
          OFFSET 0.00000 11.89050 0.00000
          CHANNELS 3 Zrotation Xrotation Yrotation
          JOINT Spine1
          {
               OFFSET -0.00000 25.65740 0.12766
               CHANNELS 3 Zrotation Xrotation Yrotation
               JOINT HEad
               {
                    OFFSET 0.00000 8.73416 0.01134
                    CHANNELS 3 Zrotation Xrotation Yrotation
                    End Site
                    {
                         OFFSET -0.29000 12.77420 2.51395
                    }
               }
               JOINT LeftShoulder1
               {
                    OFFSET 8.99000 -0.36225 -0.22000
                    CHANNELS 3 Zrotation Xrotation Yrotation
                    JOINT LeftArm
                    {
                         OFFSET 10.28270 -0.00338 0.32212
                         CHANNELS 3 Zrotation Xrotation Yrotation
                         JOINT LeftForeArm
                         {
                              OFFSET 32.76690 0.09914 -1.42434
                              CHANNELS 3 Zrotation Xrotation Yrotation
                              JOINT LeftHand
                              {
                                   OFFSET 27.56430 0.08536 1.02216
                                   CHANNELS 3 Zrotation Xrotation Yrotation
                                   End Site
                                   {
                                        OFFSET 16.74430 -0.60000 1.50291
                                   }
                              }
                         }
                    }
               }
               JOINT RightShoulder
               {
                    OFFSET -8.99000 -0.36225 -0.22000
                    CHANNELS 3 Zrotation Xrotation Yrotation
                    JOINT RightArm
                    {
                         OFFSET -10.28270 -0.00338 0.32212
                         CHANNELS 3 Zrotation Xrotation Yrotation
                         JOINT RightForeArm
                         {
                              OFFSET -32.89710 0.09914 -1.42434
                              CHANNELS 3 Zrotation Xrotation Yrotation
                              JOINT RightHand
                              {
                                   OFFSET -27.49210 0.08536 1.02216
                                   CHANNELS 3 Zrotation Xrotation Yrotation
                                   End Site
                                   {
                                        OFFSET -16.63120 -0.60000 1.50291
                                   }
                              }
                         }
                    }
               }
          }
     }
     JOINT LeftUpLeg
     {
          OFFSET 8.94580 -8.66707 0.10165
          CHANNELS 3 Zrotation Xrotation Yrotation
          JOINT LeftLeg
          {
               OFFSET 0.00000 -44.42270 1.37270
               CHANNELS 3 Zrotation Xrotation Yrotation
               JOINT LeftFoot
               {
                    OFFSET -0.25355 -42.09240 -1.46059
                    CHANNELS 3 Zrotation Xrotation Yrotation
                    JOINT LeftToes
                    {
                         OFFSET -0.04000 -4.41509 8.49910
                         CHANNELS 3 Zrotation Xrotation Yrotation
                         End Site
                         {
                              OFFSET 0.08000 -0.04745 9.77979
                         }
                    }
               }
          }
     }
     JOINT RightUpLeg
     {
          OFFSET -8.94580 -8.66707 0.10165
          CHANNELS 3 Zrotation Xrotation Yrotation
          JOINT RightLeg
          {
               OFFSET 0.00000 -44.42270 1.37270
               CHANNELS 3 Zrotation Xrotation Yrotation
               JOINT RightFoot
               {
                    OFFSET 0.25355 -42.09240 -1.46059
                    CHANNELS 3 Zrotation Xrotation Yrotation
                    JOINT RightToes
                    {
                         OFFSET 0.04000 -4.41509 8.49910
                         CHANNELS 3 Zrotation Xrotation Yrotation
                         End Site
                         {
                              OFFSET -0.08000 -0.13745 9.77979
                         }
                    }
               }
          }
     }
}
MOTION
Frames: 15
Frame Time: 0.01667
41.69216 91.27910 -19.49476 6.27171 8.54787 153.42493 -1.62032 16.19940 -0.08024 -0.03485 0.03570 0.07228 12.23328 9.32226 -29.59184 -4.87701 7.25635 14.30384 -126.74533 -50.62384 -114.72569 -69.21883 50.24281 -56.03925 19.31256 4.28147 -23.16194 -17.19976 3.48541 19.12763 24.60257 -62.38440 -20.76577 -2.03212 15.88920 78.00341 23.07533 28.61436 39.03138 -0.78729 -15.56753 -19.80691 -9.43089 5.68897 32.96546 23.46440 -0.00359 -0.00086 -19.04345 8.97760 -71.15546 -24.13733 16.78313 17.30952 49.48241 33.41975 -26.39755 -17.73669 0.02312 -0.00808 8.66311 -39.41537 14.30674 
41.84693 91.32119 -19.38151 6.27367 9.00786 154.02922 -3.00691 18.36634 6.33186 -0.03062 0.03260 0.05777 12.37488 5.51110 -33.40034 -3.02237 6.16068 8.99561 -127.66094 -50.72882 -114.78701 -68.80701 50.96426 -57.55693 15.15761 2.02413 -21.37066 -23.30708 0.85289 24.49943 27.78594 -64.92775 -20.10927 -3.74162 16.74600 82.02628 38.51053 27.15709 30.65899 -1.15910 -15.00222 -19.02830 -9.20408 5.77530 31.84341 25.91427 -0.00348 0.00004 -21.60794 8.97288 -71.30267 -23.81735 16.87539 17.33464 49.23017 32.62820 -27.19572 -17.57667 0.02197 -0.00637 8.56495 -39.85334 15.14201 
41.97941 91.40520 -19.22387 6.33886 9.55741 154.51642 -4.83674 20.69954 13.47479 -0.03115 0.03867 0.05171 12.39579 1.43597 -37.83883 -1.15630 4.68122 3.29652 -127.89396 -50.31583 -114.35738 -69.16114 51.53432 -58.42630 17.15088 1.87322 -22.46889 -23.10494 1.19181 18.56772 42.63499 -61.81959 2.21566 -4.83048 17.81949 85.02735 26.16313 20.10157 35.53457 -1.45730 -14.39235 -18.22566 -9.06253 5.89414 30.86406 28.24335 -0.00321 0.00062 -24.01369 8.89434 -71.44810 -23.59777 17.02914 17.44662 49.11884 31.95160 -28.35931 -17.47978 0.02046 -0.00381 8.49849 -39.06767 15.18075 
42.12368 91.51180 -19.01844 6.44647 10.17519 154.91757 -6.61827 22.55579 19.85532 -0.00466 -0.01313 -0.04877 11.91993 -1.86525 -41.72116 0.22246 3.54905 -1.34506 -127.65273 -49.44117 -113.61043 -69.93140 52.02523 -58.67751 15.04901 1.46014 -21.25273 -22.94507 1.72228 13.66179 53.10236 -56.81096 20.82511 -5.17667 19.02996 87.35162 33.94003 25.64549 28.01122 -1.67145 -13.76221 -17.41705 -8.98057 6.05795 30.01609 30.38864 -0.00284 0.00095 -26.23898 8.75434 -71.60138 -23.46030 17.24153 17.60960 49.12363 31.36951 -29.72225 -17.42757 0.01862 -0.00047 8.79782 -38.91626 16.31688 
42.30691 91.62162 -18.77692 6.57451 10.83057 155.27806 -8.00046 23.67528 25.10231 -0.00051 -0.01245 -0.05184 11.10997 -4.15124 -45.09727 1.16102 3.10028 -4.93496 -127.09286 -48.20709 -112.68914 -70.88951 52.37281 -58.45206 16.47619 1.99571 -21.66228 -22.71902 2.66221 9.56124 59.45440 -50.60525 35.80536 -4.56937 19.74143 89.47568 29.28545 14.34766 30.78326 -1.80215 -13.14101 -16.63182 -8.93383 6.27545 29.28305 32.30128 -0.00235 0.00108 -28.26343 8.55969 -71.77159 -23.38222 17.51674 17.78563 49.20605 30.86194 -31.10733 -17.47283 0.01664 0.00311 9.28943 -38.43682 17.49846 
42.54462 91.71912 -18.51597 6.70165 11.49526 155.64670 -8.93635 24.25484 29.17613 0.00153 -0.00881 -0.04743 10.14617 -5.52401 -47.82658 1.78503 3.28692 -7.46047 -126.37313 -46.74915 -111.70048 -71.89851 52.59774 -57.81978 15.36166 2.34266 -20.76286 -22.24701 3.86842 6.40372 63.10505 -43.90416 48.16547 -3.41384 20.26684 91.98531 27.86477 20.00903 26.74842 -1.86550 -12.55165 -15.90099 -8.90152 6.55064 28.64466 33.95174 -0.00176 0.00101 -30.06672 8.31832 -71.97671 -23.34532 17.85916 17.94106 49.35182 30.42141 -32.36753 -17.59494 0.01536 0.00629 10.00026 -38.04282 19.18110 
42.84302 91.79706 -18.25585 6.80977 12.14487 156.06049 -9.44583 24.45433 32.11812 0.00238 -0.00331 -0.03963 9.16085 -6.16049 -49.85370 2.18486 3.98698 -9.01969 -125.60470 -45.27026 -110.74403 -72.83917 52.64396 -56.99031 16.28944 3.17707 -20.90077 -21.63778 5.17863 4.38112 65.50568 -37.22042 59.09690 -1.80274 20.69539 94.34008 28.70415 10.54157 26.23603 -1.88521 -12.00924 -15.24539 -8.86950 6.88268 28.07960 35.32974 -0.00105 0.00083 -31.63856 8.05405 -72.23071 -23.33846 18.26414 18.05308 49.54531 30.04794 -33.39775 -17.77951 0.01503 0.00851 10.80881 -37.45951 21.06904 
43.20281 91.85448 -18.02087 6.88457 12.75619 156.53745 -9.58843 24.40145 34.02055 0.00503 0.00395 -0.02963 8.21978 -6.23570 -51.14909 2.42232 5.06574 -9.76708 -124.87298 -43.96333 -109.88906 -73.63937 52.53389 -56.11752 15.66463 3.74360 -20.28034 -20.87176 6.52503 3.57328 67.71699 -30.73667 69.24075 0.27837 21.42923 95.85305 20.69086 13.42644 23.30492 -1.88370 -11.52313 -14.67392 -8.83264 7.26453 27.56967 36.44089 -0.00025 0.00056 -32.97430 7.79359 -72.54361 -23.35626 18.71631 18.11031 49.77457 29.74264 -34.14857 -17.97579 0.01572 0.00949 11.65310 -36.77507 23.20777 
43.62076 91.89574 -17.83794 6.91656 13.30510 157.07619 -9.44507 24.19404 34.99896 0.00954 0.01376 -0.01949 7.34837 -5.91279 -51.71001 2.53056 6.39112 -9.88840 -124.24860 -43.00570 -109.21210 -74.24686 52.26039 -55.36310 16.21359 4.48618 -20.38756 -19.95664 7.86817 3.79852 70.70010 -24.57314 78.48579 3.40269 22.35492 95.94302 28.58498 12.10962 22.65891 -1.87525 -11.09865 -14.18709 -8.79487 7.68261 27.10327 37.30185 0.00061 0.00023 -34.07473 7.54812 -72.91358 -23.39703 19.19335 18.11106 50.02174 29.49979 -34.62073 -18.15548 0.01685 0.00925 12.42444 -35.95710 25.39781 
44.08963 91.92901 -17.73148 6.90413 13.76840 157.65991 -9.10428 23.89864 35.17361 0.01262 0.02145 -0.01129 6.55841 -5.32525 -51.56249 2.50752 7.85563 -9.52890 -123.74809 -42.48417 -108.72123 -74.68056 51.89381 -54.78802 15.87178 4.85684 -20.07829 -18.99565 9.18452 4.64858 75.74810 -19.36929 85.71393 3.93212 25.33690 93.97930 27.19910 14.91206 5.03372 -1.86221 -10.73665 -13.78077 -8.76672 8.11897 26.67642 37.93494 0.00143 -0.00017 -34.94523 7.30709 -73.32551 -23.47558 19.66676 18.06614 50.21648 29.32060 -34.83575 -18.31239 0.01772 0.00732 16.75654 -28.07380 44.85740 
44.58803 91.95919 -17.71376 6.85788 14.13129 158.26091 -8.64974 23.55743 34.65488 0.01160 0.02471 -0.00667 5.86463 -4.57539 -50.75135 2.38451 9.36362 -8.84115 -123.42136 -42.40963 -108.42289 -74.94901 51.50356 -54.41550 16.23286 5.24112 -20.30484 -17.80353 10.48099 5.65846 78.41448 -16.81785 89.21259 6.41904 22.86209 88.86432 34.42497 16.59203 9.44061 -1.83773 -10.43324 -13.44764 -8.76037 8.55628 26.29230 38.36574 0.00210 -0.00066 -35.59488 7.05365 -73.75574 -23.58954 20.11778 17.98940 50.37936 29.17838 -34.87869 -18.37106 0.01853 0.00568 15.28438 -31.61426 36.35038 
45.07447 91.99029 -17.78124 6.80098 14.38952 158.84454 -8.16464 23.19539 33.54718 0.00347 0.02491 -0.00456 5.30202 -3.74261 -49.33728 2.19360 10.83775 -7.96667 -123.28322 -42.69696 -108.28388 -75.04922 51.21261 -54.19508 16.09849 5.24775 -20.31614 -16.78602 11.67661 6.57123 83.19315 -17.18655 88.75574 7.40609 21.97849 84.94424 27.32268 14.97575 -6.22807 -1.79285 -10.18470 -13.17720 -8.78424 8.98070 25.95957 38.62286 0.00256 -0.00126 -36.03061 6.78206 -74.18117 -23.71494 20.53542 17.89471 50.56632 29.02631 -34.86681 -18.42591 0.01922 0.00449 16.03086 -29.39332 41.24223 
45.50309 92.03432 -17.89122 6.76269 14.56083 159.37321 -8.38483 23.84656 31.65316 -0.00501 0.11748 -0.04951 4.92818 -4.11064 -46.68304 1.79844 10.97779 -6.25568 -123.26950 -43.16764 -108.18309 -75.01949 51.14006 -54.09787 16.36627 5.19332 -20.65351 -16.01132 11.34588 7.37289 88.37200 -19.64202 86.02845 7.03279 22.44331 82.64699 38.64217 21.57162 2.89279 -1.72145 -9.98598 -12.95442 -8.84283 9.38301 25.69008 38.73134 0.00286 -0.00200 -36.24994 6.50170 -74.58360 -23.86041 20.90191 17.81193 50.71452 28.87214 -34.87644 -18.55602 0.01928 0.00184 15.56644 -30.10799 39.33317 
45.85352 92.08873 -17.99366 6.75645 14.72898 159.86734 -8.72014 24.74617 29.50237 -0.00570 0.03415 -0.02127 4.62873 -4.56572 -43.78392 1.35993 11.01541 -4.36033 -123.27027 -43.61853 -108.03806 -74.97240 51.17810 -54.02897 16.54991 5.05339 -20.92681 -15.53078 10.85970 8.05436 93.63517 -22.29231 83.35693 6.04450 23.07415 80.78699 40.80117 24.40820 8.02726 -1.64736 -9.76469 -12.74305 -8.87648 9.77769 25.44068 38.68237 0.00288 -0.00251 -36.29632 6.21424 -74.97266 -24.01292 21.24053 17.75584 50.86195 28.72298 -34.92601 -18.65360 0.00681 0.00028 15.20066 -30.32742 38.29514 
46.10840 92.15275 -18.06800 6.80146 14.89542 160.30713 -9.10977 25.85952 27.08661 -0.00716 0.02751 -0.01895 4.43513 -5.29245 -40.52864 0.88739 10.75709 -2.29338 -123.32262 -44.08066 -107.88013 -74.91861 51.38541 -53.98005 16.61788 4.75096 -21.18460 -12.45917 11.62266 6.93850 96.30187 -23.83564 82.11079 5.50530 24.28640 79.97150 38.30546 23.91752 10.51310 -1.56498 -9.54165 -12.53825 -8.87816 10.13402 25.21872 38.49962 0.00311 -0.00327 -36.16039 5.96567 -75.34296 -24.16756 21.53330 17.73811 51.03577 28.59146 -35.05553 -18.72083 0.00621 -0.00024 14.83768 -30.25161 37.64368 
